<svg width="512" height="512" viewBox="0 0 512 512" fill="none" xmlns="http://www.w3.org/2000/svg">
<rect width="512" height="512" fill="white"/>
<path d="M257.498 189.673L193.195 126.15C191.014 123.995 188.649 122.067 186.138 120.382L220.444 86.1758C239.401 67.2747 270.136 67.2747 289.093 86.1758C296.217 93.2784 300.899 102.363 302.597 112.132V112.132C277.69 112.132 257.498 132.323 257.498 157.231V189.673Z" fill="black"/>
<path d="M391.259 188.04C397.217 179.912 400.483 170.058 400.483 159.87C400.483 133.505 379.047 112.132 352.604 112.132H302.597C303.056 114.771 303.298 117.461 303.31 120.175L303.729 210.432L326.192 188.038C344.176 170.109 373.276 170.109 391.259 188.04V188.04Z" fill="black"/>
<path d="M400.486 303.415C410.079 301.718 418.996 297.128 425.977 290.167C444.675 271.524 444.675 241.298 425.977 222.655L391.259 188.04C389.859 189.95 388.31 191.765 386.619 193.466L323.791 256.704L353.776 256.705C379.573 256.705 400.486 277.618 400.486 303.415V303.415Z" fill="black"/>
<path d="M325.624 390.223V390.223C343.106 372.792 343.106 344.477 325.624 327.046L303.082 304.569L392.347 304.149C395.095 304.136 397.817 303.888 400.486 303.415V352.331C400.486 378.254 379.409 399.27 353.409 399.27C343.357 399.27 333.637 396.064 325.624 390.223Z" fill="black"/>
<path d="M209.536 399.273C210.896 409.428 215.563 418.926 222.911 426.252C241.296 444.583 271.104 444.583 289.489 426.252L325.624 390.223C323.654 388.787 321.788 387.192 320.045 385.446L257.501 322.803L257.5 351.311C257.499 377.8 236.025 399.273 209.536 399.273V399.273Z" fill="black"/>
<path d="M121.4 325.047C115.653 332.973 112.499 342.557 112.499 352.47C112.499 378.318 133.516 399.273 159.44 399.273H209.536C209.258 397.19 209.118 395.08 209.123 392.955L209.324 304.58L188.779 325.055C170.154 343.617 140.021 343.614 121.4 325.047V325.047Z" fill="black"/>
<path d="M110.488 210.368L110.488 160.531C110.488 133.801 132.221 112.132 159.03 112.132C168.756 112.132 178.182 115.042 186.138 120.382V120.382C167.432 139.032 167.432 169.329 186.138 187.98L208.653 210.429L119.376 209.605C116.373 209.577 113.398 209.836 110.488 210.368Z" fill="black"/>
<path d="M190.271 256.708L156.825 256.707C131.233 256.706 110.488 235.959 110.488 210.368V210.368C101.183 212.066 92.5354 216.544 85.7488 223.311C67.4171 241.589 67.4171 271.223 85.7488 289.501L121.4 325.047C122.937 322.928 124.659 320.927 126.557 319.07L190.271 256.708Z" fill="black"/>
</svg>
